<?xml version="1.0" encoding="UTF-8"?>
<svg xmlns="http://www.w3.org/2000/svg" viewBox="0 0 100 100" width="100" height="100">
  <rect x="4" y="4" width="92" height="92" rx="20" fill="#6FA828"/>
  <g transform="translate(12,12) scale(0.76)">
    <path d="M20,34 L20,74 Q20,82 28,82 L72,82 Q80,82 80,74 L80,34" fill="none" stroke="#141413" stroke-width="5" stroke-linecap="round" stroke-linejoin="round"/>
    <line x1="20" y1="34" x2="20" y2="24" stroke="#141413" stroke-width="5" stroke-linecap="round"/>
    <line x1="80" y1="34" x2="80" y2="24" stroke="#141413" stroke-width="5" stroke-linecap="round"/>
    <path d="M50,26 C62,14 76,14 80,24 L80,70 C80,76 68,74 60,77 C55,79 52,81 50,83" fill="none" stroke="#141413" stroke-width="5" stroke-linecap="round" stroke-linejoin="round"/>
    <path d="M50,26 C38,14 24,14 20,24 L20,70 C20,76 32,74 40,77 C45,79 48,81 50,83" fill="none" stroke="#141413" stroke-width="5" stroke-linecap="round" stroke-linejoin="round"/>
    <line x1="50" y1="27" x2="50" y2="82" stroke="#141413" stroke-width="3"/>
    <rect x="42" y="34" width="16" height="24" fill="#F4B400"/>
    <polygon points="26,58 74,58 50,84" fill="#F4B400"/>
  </g>
</svg>
